<svg width="64" height="64" viewBox="0 0 64 64" fill="none" xmlns="http://www.w3.org/2000/svg">
<g clip-path="url(#clip0_3005_160372)">
<path d="M34.5191 8.61523H31.3677C19.5666 8.61523 10 18.4124 10 30.4979V33.7252C10 45.8106 19.5666 55.6078 31.3677 55.6078H34.5191C46.3201 55.6078 55.8868 45.8106 55.8868 33.7252V30.4979C55.8868 18.4124 46.3201 8.61523 34.5191 8.61523Z" fill="#F5EAF8" stroke="#E1C7E8"/>
<g filter="url(#filter0_d_3005_160372)">
<path d="M62.3286 44.1124C62.3293 42.0358 53.4575 40.3495 42.5128 40.3458C31.5682 40.3422 22.6953 42.0227 22.6946 44.0993C22.6939 46.1759 31.5657 47.8623 42.5103 47.8659C53.455 47.8696 62.3279 46.1891 62.3286 44.1124Z" fill="#0B1219"/>
</g>
<path fill-rule="evenodd" clip-rule="evenodd" d="M57.8155 53.1978C59.4126 53.1978 60.7206 51.8912 60.7206 50.2952V24.2793C59.7072 24.4718 25.4579 24.4636 24.4941 24.2793V50.2952C24.4941 51.8926 25.8007 53.1978 27.3951 53.1978H57.8155Z" fill="white"/>
<path fill-rule="evenodd" clip-rule="evenodd" d="M57.4604 30.7768V51.8844C57.4604 52.3568 57.3291 52.8032 57.0967 53.1978H57.3829C59.2171 53.1978 60.7193 51.8912 60.7193 50.2952V24.2793L60.6086 24.2902C60.2386 24.3162 59.1144 24.3394 57.4619 24.3585L57.4604 30.7768Z" fill="white" fill-opacity="0.4"/>
<path fill-rule="evenodd" clip-rule="evenodd" d="M25.7002 19.6127L35.4886 20.6653L34.2608 14.6406H28.3038C26.8711 14.6406 25.7002 15.898 25.7002 17.4376V19.6127ZM50.9509 14.6406L49.7217 20.6638L59.5115 19.6127V17.4376C59.5119 16.6993 59.2384 15.9909 58.7506 15.4669C58.2628 14.9429 57.6004 14.6458 56.9079 14.6406H50.9509Z" fill="#FFD772"/>
<path fill-rule="evenodd" clip-rule="evenodd" d="M46.9559 27.0426C46.9559 29.5004 48.9103 31.5084 51.3005 31.5084C53.6934 31.5084 55.6492 29.5004 55.6492 27.0411C55.6492 29.5004 57.6063 31.5084 59.9965 31.5084C60.2731 31.5084 60.5414 31.4802 60.8056 31.4308C61.8027 31.23 62.7006 30.6825 63.3458 29.882C63.9911 29.0814 64.3438 28.0773 64.3438 27.0411V22.7699C64.3438 20.274 62.399 19.459 60.8056 19.459H50.4789C48.9159 22.2651 45.9766 24.1518 42.6086 24.1518C41.0066 24.1504 39.4337 23.7151 38.0509 22.8906C36.6681 22.066 35.5249 20.8818 34.7384 19.459H24.4116C22.814 19.459 20.8721 20.274 20.8721 22.7699V27.0426C20.8719 28.0788 21.2247 29.083 21.8704 29.8834C22.516 30.6839 23.4142 31.2308 24.4116 31.4308C24.6716 31.4816 24.9441 31.5084 25.218 31.5084C27.6109 31.5084 29.5653 29.5004 29.5653 27.0411C29.5653 29.5004 31.5225 31.5084 33.9126 31.5084C36.3041 31.5084 38.2599 29.5004 38.2599 27.0411C38.2599 29.5004 40.2185 31.5084 42.6086 31.5084C44.9987 31.5084 46.9559 29.5018 46.9559 27.0426Z" fill="url(#paint0_linear_3005_160372)"/>
<path fill-rule="evenodd" clip-rule="evenodd" d="M34.1383 18.521C34.9251 19.9015 36.0678 21.0504 37.4499 21.8503C38.8319 22.6503 40.4037 23.0726 42.0046 23.0741C45.3691 23.0741 48.3053 21.2422 49.8667 18.521C50.6252 17.1994 51.0605 15.6685 51.0605 14.0377C51.0605 9.0455 47.0037 5 42.0046 5C37.0027 5 32.9473 9.0455 32.9473 14.0377C32.9473 15.6685 33.3797 17.1994 34.1383 18.521Z" fill="#F9F7F8"/>
<path fill-rule="evenodd" clip-rule="evenodd" d="M58.3066 19.5549C59.5954 19.8355 60.8238 20.752 60.8238 22.7697V27.0406C60.8235 27.8917 60.593 28.7251 60.1594 29.4434C59.7258 30.1618 59.1068 30.7354 58.375 31.0972C59.1681 31.4871 60.0579 31.6036 60.9176 31.43C61.8833 31.2292 62.7529 30.6818 63.3778 29.8812C64.0028 29.0807 64.3444 28.0767 64.3444 27.0406V22.7697C64.3444 20.274 62.4609 19.459 60.9176 19.459H59.2109L58.3066 19.5549Z" fill="#E5384F"/>
<path fill-rule="evenodd" clip-rule="evenodd" d="M42.1039 5.00274C45.8665 6.00017 48.6512 9.54248 48.6512 13.7593C48.6536 15.3325 48.2579 16.8792 47.5033 18.2471C46.7673 19.5883 45.7079 20.7113 44.4274 21.5078C43.1469 22.3042 41.6886 22.7471 40.1934 22.7937C41.8683 23.2364 43.6334 23.1534 45.2622 22.5553C46.891 21.9573 48.309 20.8715 49.3341 19.4374C50.4581 17.8751 51.0637 15.9815 51.0613 14.0371C51.0626 9.04582 47.1618 5 42.355 5C42.2686 5 42.1863 5 42.1039 5.00274Z" fill="#DDDAEC"/>
<path fill-rule="evenodd" clip-rule="evenodd" d="M54.0297 34.0418H47.4602C46.4393 34.0418 45.604 34.9431 45.604 36.0431V53.197H55.8859V36.0431C55.8859 34.9431 55.0506 34.0418 54.0297 34.0418ZM41.3387 46.9223V35.9251C41.3387 34.8222 40.502 33.918 39.4784 33.918H29.9685C28.9463 33.918 28.1123 34.8222 28.1123 35.9251V46.9223C28.1123 48.0252 28.9463 48.9251 29.9685 48.9251H39.4784C40.5007 48.9251 41.3387 48.0252 41.3387 46.9223Z" fill="#B1E4F9"/>
<path fill-rule="evenodd" clip-rule="evenodd" d="M46.2314 35.8122H52.1491C53.1088 35.8122 53.894 36.7195 53.894 37.8268V53.197H55.8918V35.9325C55.8918 34.8252 55.1079 33.918 54.1482 33.918H47.9726C47.5267 33.9219 47.0988 34.1199 46.7755 34.4718C46.4522 34.8238 46.2577 35.3035 46.2314 35.8137V35.8122Z" fill="#75CEF8"/>
<path fill-rule="evenodd" clip-rule="evenodd" d="M33.4275 43.5565L36.5675 40.5778L35.2828 38.4947C35.1258 38.2395 34.9293 38.025 34.7046 37.8637C34.48 37.7024 34.2316 37.5974 33.9738 37.5548C33.716 37.5122 33.4539 37.5328 33.2026 37.6154C32.9513 37.6981 32.7157 37.8411 32.5096 38.0363C32.0947 38.4351 31.8237 39.0183 31.7546 39.6606C31.6856 40.3028 31.8242 40.9528 32.1406 41.4706L33.4275 43.5579V43.5565Z" fill="url(#paint1_linear_3005_160372)"/>
<path fill-rule="evenodd" clip-rule="evenodd" d="M36.8728 39.9448L32.9473 42.9243L34.5533 45.008C34.7496 45.2627 34.995 45.4766 35.2754 45.6376C35.5559 45.7987 35.8659 45.9035 36.1876 45.9463C36.5094 45.989 36.8365 45.9687 37.1503 45.8867C37.464 45.8046 37.7583 45.6623 38.016 45.468C39.0977 44.6497 39.3054 43.1021 38.4788 42.0313L36.8742 39.9434L36.8728 39.9448Z" fill="#F9F7F8"/>
<path fill-rule="evenodd" clip-rule="evenodd" d="M33.6644 39.2285L35.1336 41.0378L35.2226 41.148L36.5675 40.1766L35.1022 38.3674C34.9094 38.1293 34.6648 37.9323 34.3845 37.7895C34.1042 37.6467 33.7947 37.5613 33.4764 37.539C33.1582 37.5168 32.8386 37.5582 32.5387 37.6605C32.2389 37.7627 31.9657 37.9235 31.7373 38.1322C32.5982 37.9056 33.0927 38.5181 33.6644 39.2285Z" fill="#E5384F"/>
<path fill-rule="evenodd" clip-rule="evenodd" d="M36.8476 39.9448L35.3594 41.0801L36.8838 43.0674C37.6569 44.0767 38.0521 45.1033 37.1589 45.9681C37.4571 45.8864 37.7437 45.7476 38.0029 45.55C39.0959 44.7196 39.3058 43.149 38.4705 42.0623L36.8491 39.9434L36.8476 39.9448Z" fill="#DDDAEC"/>
<path fill-rule="evenodd" clip-rule="evenodd" d="M39.5284 38.1079V49.5822C40.5551 49.5822 41.3953 48.6429 41.3953 47.4917V36.0129C41.3953 34.8618 40.5551 33.918 39.5271 33.918H29.9765C28.9498 33.918 28.1123 34.8618 28.1123 36.0129H37.3103C38.337 36.0129 39.5311 36.9552 39.5284 38.1079Z" fill="#75CEF8"/>
<path fill-rule="evenodd" clip-rule="evenodd" d="M40.8284 16.4102V19.1962C40.8284 19.3406 40.946 19.4598 41.0904 19.4598H44.1165C44.1866 19.4587 44.2536 19.4306 44.303 19.3813C44.3525 19.3321 44.3806 19.2657 44.3813 19.1962V16.4102H47.171C47.2408 16.4099 47.3078 16.3823 47.3573 16.3335C47.4068 16.2847 47.435 16.2186 47.4358 16.1494V13.1293C47.4354 13.0599 47.4074 12.9934 47.3578 12.9443C47.3082 12.8952 47.2411 12.8675 47.171 12.8671H44.3813V10.0825C44.381 10.0131 44.3529 9.94661 44.3034 9.89751C44.2538 9.84842 44.1866 9.82068 44.1165 9.82031H41.0904C41.0558 9.8205 41.0216 9.82742 40.9897 9.8407C40.9578 9.85398 40.9289 9.87334 40.9046 9.89769C40.8802 9.92203 40.861 9.95089 40.8479 9.9826C40.8349 10.0143 40.8282 10.0483 40.8284 10.0825V12.8671H38.0359C37.9663 12.8678 37.8999 12.8958 37.851 12.945C37.8022 12.9941 37.775 13.0604 37.7754 13.1293V16.1494C37.7754 16.2939 37.8915 16.4102 38.0359 16.4102H40.8284Z" fill="url(#paint2_linear_3005_160372)"/>
<path fill-rule="evenodd" clip-rule="evenodd" d="M47.2101 12.8671H44.8108V10.0825C44.8108 10.0132 44.787 9.94673 44.7446 9.8976C44.7021 9.84847 44.6445 9.82068 44.5843 9.82031H42.6064C43.4153 11.3014 43.8431 13.0161 43.8402 14.7656C43.8424 16.3777 43.4797 17.9628 42.7879 19.3645L42.7392 19.4598H44.5831C44.6432 19.4584 44.7005 19.43 44.7427 19.3808C44.785 19.3316 44.809 19.2654 44.8096 19.1962V16.4102H47.2089C47.269 16.4099 47.3265 16.3823 47.3692 16.3335C47.4118 16.2847 47.436 16.2186 47.4366 16.1494V13.1293C47.4363 13.0599 47.4122 12.9934 47.3696 12.9443C47.3269 12.8952 47.2704 12.8675 47.2101 12.8671Z" fill="#E5384F"/>
<path d="M49.2554 44.7635H49.2404C49.1617 44.7632 49.0839 44.7474 49.0113 44.717C48.9387 44.6866 48.8728 44.6422 48.8174 44.5863C48.762 44.5304 48.7181 44.4641 48.6883 44.3913C48.6585 44.3184 48.6433 44.2404 48.6436 44.1616C48.6436 43.8283 48.9107 43.5586 49.2404 43.5586H49.2554C49.5839 43.5586 49.8511 43.8283 49.8511 44.1605C49.8511 44.4938 49.5851 44.7635 49.2554 44.7635Z" fill="#2B4D66"/>
<path fill-rule="evenodd" clip-rule="evenodd" d="M55.8877 53.1962H64.0169C64.0597 53.1962 64.102 53.1883 64.1415 53.173C64.1809 53.1577 64.2167 53.1353 64.2468 53.107C64.2769 53.0788 64.3007 53.0452 64.3168 53.0084C64.3329 52.9715 64.3409 52.9321 64.3405 52.8923V40.2458C64.3407 40.2063 64.3325 40.1671 64.3165 40.1305C64.3004 40.0939 64.2767 40.0606 64.2468 40.0326C64.2169 40.0045 64.1814 39.9821 64.1422 39.9668C64.103 39.9515 64.061 39.9435 64.0185 39.9434H56.2097C56.1672 39.9435 56.1252 39.9515 56.086 39.9668C56.0468 39.9821 56.0113 40.0045 55.9814 40.0326C55.9515 40.0606 55.9278 40.0939 55.9117 40.1305C55.8957 40.1671 55.8875 40.2063 55.8877 40.2458V53.1962Z" fill="#FFD772"/>
<path fill-rule="evenodd" clip-rule="evenodd" d="M25.7039 44.7637C28.3578 44.7637 30.5324 46.5316 30.5324 48.6932V53.1982H21.2034C21.1597 53.1981 21.1164 53.1909 21.0761 53.1773C21.0358 53.1636 20.9992 53.1437 20.9685 53.1186C20.9377 53.0935 20.9133 53.0637 20.8968 53.031C20.8803 52.9984 20.8719 52.9634 20.8721 52.928V48.6932C20.8721 46.5316 23.0483 44.7637 25.7039 44.7637Z" fill="url(#paint3_linear_3005_160372)"/>
<path fill-rule="evenodd" clip-rule="evenodd" d="M27.4458 48.6385V53.1411H20.8721V53.1982H30.5324V48.693C30.5338 47.6591 30.0297 46.6665 29.1299 45.9312C28.528 45.433 27.771 45.0752 26.9385 44.8953C26.106 44.7153 25.2289 44.72 24.3994 44.9088C24.3528 44.9218 24.3077 44.9309 24.2627 44.9426L24.3994 44.9854C25.2995 45.2805 26.0701 45.7858 26.6128 46.4365C27.1554 47.0872 27.4455 47.8539 27.4458 48.6385Z" fill="white" fill-opacity="0.4"/>
<path d="M61.3275 44.8992H60.113C59.953 44.8982 59.8 44.8271 59.6875 44.7015C59.5749 44.576 59.5121 44.4062 59.5127 44.2295C59.5127 43.8586 59.7819 43.5586 60.113 43.5586H61.3275C61.6585 43.5586 61.9278 43.8586 61.9278 44.2282C61.9278 44.5991 61.6597 44.8992 61.3275 44.8992ZM61.3275 47.8418H60.113C59.953 47.8407 59.8 47.7697 59.6875 47.6441C59.5749 47.5186 59.5121 47.3488 59.5127 47.1721C59.5127 46.8012 59.7819 46.5012 60.113 46.5012H61.3275C61.6585 46.5012 61.9278 46.8012 61.9278 47.1708C61.9278 47.5417 61.6597 47.8418 61.3275 47.8418ZM61.3275 50.7882H60.113C59.953 50.7872 59.8 50.7161 59.6875 50.5906C59.5749 50.465 59.5121 50.2953 59.5127 50.1186C59.5127 49.7477 59.7819 49.4476 60.113 49.4476H61.3275C61.6585 49.4476 61.9278 49.7477 61.9278 50.1173C61.9278 50.4882 61.6597 50.7869 61.3275 50.7869V50.7882Z" fill="#2B4D66"/>
<path fill-rule="evenodd" clip-rule="evenodd" d="M62.4077 40.5872V53.1986H64.0483C64.0875 53.1985 64.1262 53.1908 64.1623 53.1762C64.1983 53.1615 64.231 53.1402 64.2585 53.1133C64.286 53.0864 64.3077 53.0546 64.3224 53.0196C64.337 52.9847 64.3444 52.9472 64.344 52.9095V40.8777C64.3442 40.8401 64.3367 40.8028 64.3219 40.768C64.3072 40.7332 64.2855 40.7015 64.258 40.6748C64.2305 40.6481 64.1979 40.6268 64.1619 40.6122C64.1259 40.5977 64.0873 40.5901 64.0483 40.5899H62.4077V40.5872ZM52.2686 14.6406C53.7154 14.6406 54.8952 15.7875 54.8952 17.1917V19.1756H59.0821V17.1917C59.0825 16.5183 58.8065 15.8722 58.3144 15.3942C57.8223 14.9163 57.154 14.6454 56.4554 14.6406H52.2686Z" fill="#FBBA58"/>
</g>
<defs>
<filter id="filter0_d_3005_160372" x="10.6943" y="35.3457" width="63.6338" height="31.5195" filterUnits="userSpaceOnUse" color-interpolation-filters="sRGB">
<feFlood flood-opacity="0" result="BackgroundImageFix"/>
<feColorMatrix in="SourceAlpha" type="matrix" values="0 0 0 0 0 0 0 0 0 0 0 0 0 0 0 0 0 0 127 0" result="hardAlpha"/>
<feOffset dy="7"/>
<feGaussianBlur stdDeviation="6"/>
<feColorMatrix type="matrix" values="0 0 0 0 0.921569 0 0 0 0 0.329412 0 0 0 0 0.407843 0 0 0 0.5 0"/>
<feBlend mode="normal" in2="BackgroundImageFix" result="effect1_dropShadow_3005_160372"/>
<feBlend mode="normal" in="SourceGraphic" in2="effect1_dropShadow_3005_160372" result="shape"/>
</filter>
<linearGradient id="paint0_linear_3005_160372" x1="39.7856" y1="23.1126" x2="40.0457" y2="26.6428" gradientUnits="userSpaceOnUse">
<stop stop-color="#FF637B"/>
<stop offset="1" stop-color="#E63950"/>
</linearGradient>
<linearGradient id="paint1_linear_3005_160372" x1="33.8378" y1="39.3592" x2="34.3678" y2="40.9594" gradientUnits="userSpaceOnUse">
<stop stop-color="#FF637B"/>
<stop offset="1" stop-color="#E63950"/>
</linearGradient>
<linearGradient id="paint2_linear_3005_160372" x1="41.9783" y1="12.7437" x2="42.6803" y2="15.3972" gradientUnits="userSpaceOnUse">
<stop stop-color="#FF637B"/>
<stop offset="1" stop-color="#E63950"/>
</linearGradient>
<linearGradient id="paint3_linear_3005_160372" x1="22.9936" y1="46.5044" x2="29.4642" y2="52.8335" gradientUnits="userSpaceOnUse">
<stop stop-color="#BCE097"/>
<stop offset="1" stop-color="#7DC03A"/>
</linearGradient>
<clipPath id="clip0_3005_160372">
<rect width="64" height="64" fill="white"/>
</clipPath>
</defs>
</svg>
